<svg height="260" viewBox="0 0 181.079 259.564" width="182" xmlns="http://www.w3.org/2000/svg"><path d="m9.216 23.841h162.646v226.531h-162.646z" fill="#eae2c2"/><path d="m171.862 14.65h-162.646a9.345 9.345 0 0 0 -9.216 9.191v226.532a9.344 9.344 0 0 0 9.216 9.191h162.646a9.232 9.232 0 0 0 9.217-9.191v-226.532a9.346 9.346 0 0 0 -9.217-9.191zm-142.248 226.531h-11.167v-208.134h144.184v208.134z" fill="#e5a024"/><g fill="#3b301b"><path d="m49.164 36.708a5.027 5.027 0 0 0 -5.768-.855c-.074-.046-.15-.088-.222-.137-.222-.206-.625-.59-.648-.614-.124-.129-.241-.264-.358-.4l-.009-.012c-.47-.718-.959-1.419-1.4-2.156q-.769-1.287-1.427-2.637-.187-.386-.366-.775c-.131-.3-.182-.411-.169-.375v-.005c-.107-.266-.21-.532-.309-.8a35.4 35.4 0 0 1 -1.571-5.561c-.1-.49-.166-.985-.257-1.477.219 1.18-.02-.2-.037-.371a26.817 26.817 0 0 1 -.157-2.861c0-.4.013-.8.039-1.194.009-.13.023-.259.035-.388.012-.062.025-.138.043-.242.1-.369.21-.757.292-1.131.015-.065.024-.116.031-.158.037-.059.08-.134.138-.24q.132-.254.288-.493c.054-.058.109-.115.167-.17l.054-.035c.2-.058.426-.149.554-.2h.01c1.606 1.666 4.117 2.469 6.252 1.092 2.1-1.354 3.426-4.569 1.794-6.841a9.255 9.255 0 0 0 -5.736-4 11.25 11.25 0 0 0 -6.663.714c-4.755 2.007-6.787 6.839-7.228 11.694a33.7 33.7 0 0 0 1.749 12.9 38.7 38.7 0 0 0 6.086 11.884c3.561 4.609 9.923 7.214 14.8 2.913a5.031 5.031 0 0 0 -.007-7.069z"/><path d="m83.639 35.974a5.092 5.092 0 0 0 -7.071 0c-.055.051-.078.075-.114.111-.055.033-.107.071-.164.1l-.045.006c-.107.03-.217.05-.324.074-.2 0-.555-.051-.818-.048-.185-.045-.37-.092-.552-.149l-.083-.017c-.158-.093-.769-.508-.827-.51-.179-.159-.363-.312-.531-.482s-.863-1.093-.675-.787c-.151-.224-.306-.445-.447-.677a16.1 16.1 0 0 1 -1.183-2.3c-.084-.233-.2-.543-.233-.643q-.276-.758-.521-1.526-.5-1.573-.883-3.183c-.253-1.073-.447-2.154-.633-3.241-.021-.121-.037-.206-.049-.272s-.011-.144-.022-.269c-.057-.627-.126-1.252-.167-1.88-.072-1.1-.1-2.2-.09-3.3.005-.417.015-.833.037-1.249.014-.261.032-.522.056-.782l.021-.2c.073-.317.194-.733.207-.779a5.006 5.006 0 0 0 5.582.375 5.1 5.1 0 0 0 1.794-6.841c-2.462-4.428-8.619-5.282-12.65-2.534-4.472 3.05-5.171 8.662-5.034 13.659a47.244 47.244 0 0 0 2.562 14.271c1.574 4.486 3.89 8.857 8.046 11.445 4.572 2.854 10.924 2.554 14.811-1.301a5.056 5.056 0 0 0 0-7.071z"/><path d="m114.808 35.361a5.1 5.1 0 0 0 -6.675 1.566h-.009c-.09 0-.18-.006-.27-.009-.086-.022-.169-.051-.253-.077l-.109-.056c-.171-.1-.335-.206-.5-.315l-.066-.057c-.272-.287-.568-.548-.832-.844-.094-.105-.182-.215-.272-.323l-.174-.241a48.627 48.627 0 0 1 -3.163-5.8c-.076-.192-.241-.595-.285-.709q-.315-.828-.595-1.668-.558-1.68-.969-3.405c-.244-1.02-.435-2.049-.6-3.083-.015-.146-.116-.887-.131-1.041q-.077-.771-.122-1.545a31.142 31.142 0 0 1 -.045-3.319q.017-.374.05-.745c.012-.11.02-.188.026-.25a4.751 4.751 0 0 0 3.775 1.762 5.092 5.092 0 0 0 5-5c.08-5.748-6.177-9.318-11.37-7.745-5.563 1.685-7.472 7.65-7.5 12.9a44.209 44.209 0 0 0 2.537 14.964c1.675 4.689 4.034 10.106 7.9 13.423a11.827 11.827 0 0 0 8.316 3.17 9.845 9.845 0 0 0 8.128-4.714 5.063 5.063 0 0 0 -1.792-6.839z"/><path d="m148.433 34.722c-1.333-2.067-4.239-3.234-6.524-1.979-.261-.14-.577-.322-.6-.416q.768.6.134.06-.213-.194-.412-.4c-.072-.072-.257-.243-.418-.39a10.289 10.289 0 0 1 -1.216-1.964q-.7-1.211-1.295-2.476c-.066-.14-.378-.863-.422-.946-.109-.277-.22-.553-.323-.832a36.177 36.177 0 0 1 -1.52-5.379c-.085-.422-.154-.846-.233-1.269-.02-.112-.035-.188-.048-.251 0-.037-.007-.074-.012-.123-.1-1-.19-2-.221-3-.026-.859-.023-1.72.014-2.58.019-.469.076-.94.091-1.409.019-.105.035-.212.057-.317a4.6 4.6 0 0 0 4.081.7 5.077 5.077 0 0 0 3.492-6.151c-1.6-5.138-7.42-6.888-12.028-4.631-4.446 2.178-5.54 7.556-5.7 12.024a40.49 40.49 0 0 0 1.581 12.593 35.885 35.885 0 0 0 5.274 11.314c3.225 4.327 9.18 8.19 14.454 4.664 2.171-1.452 3.318-4.477 1.794-6.842z"/><path d="m114.654 81.024a5.121 5.121 0 0 0 -6.151-3.492c-1.921.4-3.844.787-5.784 1.086-.178.028-.983.124-.887.116-.31.035-.619.071-.93.1-.893.082-1.79.135-2.687.149a27.413 27.413 0 0 1 -2.881-.1c-.133-.011-.265-.026-.4-.04l-.238-.038c-.43-.094-.864-.166-1.292-.271a20.657 20.657 0 0 1 -2.181-.686c-.155-.067-.61-.251-.739-.308q-.891-.4-1.792-.78a13.367 13.367 0 0 0 -6.389-1.308 12.009 12.009 0 0 0 -4.047 1.136c-.361.162-.71.342-1.06.523-.071.037-.515.251-.786.389-.065.02-.138.044-.211.07a3.678 3.678 0 0 0 -.536.082c-.221-.063-.441-.146-.638-.2-.05-.014-.088-.023-.127-.033-.045-.027-.1-.06-.167-.1-.643-.365-1.262-.752-1.866-1.174-.151-.12-.491-.38-.589-.463-.426-.362-.841-.736-1.253-1.113-2.108-1.927-6.518-2.116-7.853 1.012-.358.839-.718 1.679-1.124 2.5a7.409 7.409 0 0 1 -1.374 2.344l.317-.4c-.162.2-.33.388-.506.572-.056.059-.152.18-.241.3-.14.1-.281.194-.429.279l-.118.061c-.143.044-.285.087-.43.122h-.031c-.041-.068-.077-.132-.1-.184-.189-.4-.34-.826-.542-1.224a8.668 8.668 0 0 0 -1.875-2.451c-3.3-3.018-8.567-3.1-12.3-.806-3.808 2.346-5.575 6.408-7.116 10.4-.944 2.446 1.039 5.592 3.492 6.151a5.142 5.142 0 0 0 6.15-3.493c.149-.384.3-.765.451-1.15.075-.166.148-.332.225-.5.33-.693.732-1.334 1.111-2l.058-.083c.109-.125.217-.251.333-.37l.268-.264.114-.1.32-.139.162-.046c.053.089.1.171.128.231.16.347.29.708.462 1.051a8.779 8.779 0 0 0 1.872 2.47c3.277 3.049 8.482 3.166 12.271 1.022a13.419 13.419 0 0 0 4.437-4.239 12.954 12.954 0 0 0 6.844 2 10.592 10.592 0 0 0 3.633-.692 21.932 21.932 0 0 0 2.083-.932 5.928 5.928 0 0 1 1.157-.613h.017c-.532.206-.558.224-.05.042l.176-.047h.108c.193.013.311.019.369.02.28.084.581.216.739.269.235.08.466.168.7.259a29.578 29.578 0 0 0 13.06 3.036 68.7 68.7 0 0 0 13.17-1.811 5.034 5.034 0 0 0 3.493-6.142z"/><path d="m73.181 117.367-.279-.121a.5.5 0 0 0 .046.024l.216.092z"/><path d="m68.7 126.26c-.046.08-.044.1.027.006l-.023-.011z"/><path d="m118.627 131a.188.188 0 0 0 .03-.009z"/><path d="m119.064 130.774h-.015c-.015 0-.028.01-.042.014l-.134.074h.032c.048-.023.095-.052.159-.088z"/><path d="m138.051 121.144c-2.222-1.174-5.647-.731-6.841 1.794-.105.222-.23.434-.344.651a7.4 7.4 0 0 0 -.769.779c-.016.009-.031.02-.046.029-.161.1-.332.178-.493.273-.27.079-.532.171-.806.236l-.12.027c-.136.015-.279.038-.336.04-.193.007-.384 0-.576-.009a.958.958 0 0 1 .12.066 1.012 1.012 0 0 0 -.149-.067c-.1 0-.2 0-.293 0-.409 0-.293-.132-.015-.1-.13-.041-.273-.082-.409-.118.091.075-.01.119-.374-.085q-.061-.01-.108-.015l.089.067c-.027 0-.079-.026-.14-.069-.008 0-.022 0-.028 0a.209.209 0 0 1 .025 0 3.091 3.091 0 0 1 -.287-.249l.333.248h.075l-.018-.01-.252-.157-.193-.133c-.361-.354-.8-.845-.893-.931a11.346 11.346 0 0 0 -2.243-1.625 8.513 8.513 0 0 0 -4.556-.969 13.4 13.4 0 0 0 -6.7 2.736c-.747.527-1.475 1.08-2.234 1.587-.105.07-.217.131-.323.2-.714-2.334-1.4-4.666-3.307-6.368a9.356 9.356 0 0 0 -9.04-1.743 28.158 28.158 0 0 0 -2.69 1.007c-.446.18-.892.36-1.345.52a4.72 4.72 0 0 1 -.591.148c-.027-.056-.053-.112-.081-.167-.1-.224-.136-.308-.127-.286q-.157-.372-.316-.746a8.97 8.97 0 0 0 -6.273-5.587 9.452 9.452 0 0 0 -7.609 2.062c-1 .752-1.953 1.549-2.921 2.336l-.145.119-.154.107c-.329.232-.669.431-1.014.628.028 0 .055 0 .08.01.041-.015.071-.024.077-.016a.2.2 0 0 1 -.057.021c.185.038.262.109-.054.092h-.03c-.032-.008-.059-.017-.1-.026.03-.014.055-.026.082-.037l-.11.03h-.012l-.021.012c-.194.052-.411.108-.413.114a.32.32 0 0 1 .23-.177l-.045-.019a.985.985 0 0 1 -.216-.092c-.381-.163-.762-.326-1.145-.485a9.607 9.607 0 0 0 -3.174-.757 8.944 8.944 0 0 0 -7.583 3.856c-.423.548-.817 1.11-1.2 1.677a17.661 17.661 0 0 0 -3.04-4.736 9.235 9.235 0 0 0 -11.107-1.395c-3.664 1.976-5.28 5.946-6.392 9.723a5 5 0 0 0 9.643 2.658c.188-.64.375-1.281.595-1.912l.135-.377c.044-.112.072-.185.1-.247.083-.146.179-.3.219-.367a3.1 3.1 0 0 1 .2-.283c.154.269.316.533.457.809a18.631 18.631 0 0 0 3.253 5.2 8.113 8.113 0 0 0 8.238 1.974c2.743-.914 4.437-3.134 5.963-5.454.2-.3.4-.6.6-.892v-.006l.02-.031.03.007c-.013.018-.017.022-.027.035a11.719 11.719 0 0 0 2.456.914 9.764 9.764 0 0 0 4.934-.1c2.491-.712 4.493-2.414 6.446-4.029.144-.118.288-.237.435-.354l.208.493a12.914 12.914 0 0 0 .761 1.565 8.69 8.69 0 0 0 8.03 4.321c2.425-.193 4.409-1.165 6.656-1.964.183-.065.367-.126.553-.185.107.361.209.723.313 1.084a14.582 14.582 0 0 0 1.5 3.748 8.466 8.466 0 0 0 7.792 4.142 13.588 13.588 0 0 0 6.7-2.848c.816-.585 1.619-1.19 2.471-1.722.2-.128.422-.237.638-.347-.029.006-.028-.006 0-.031l.022.017c.075-.038.146-.082.221-.12-.017 0-.034 0-.051 0a1.461 1.461 0 0 1 .185-.07l.025-.013h.017.006.018-.009.019c.2 0 .213-.015.144-.039.424-.081.045.152-.322.13a2.3 2.3 0 0 1 -.248.123c.066.054.125.1.162.14a13.677 13.677 0 0 0 4.661 3.038c5.85 2.308 13.632-.4 16.365-6.181 1.123-2.366.742-5.511-1.787-6.847z"/><path d="m109.564 126.365-.006-.018a.22.22 0 0 0 -.049-.031c0 .014 0 .027.009.045a.118.118 0 0 0 .046.004z"/><path d="m73.534 117.361a.923.923 0 0 0 -.318.017c.068.02.132.038.2.054z"/><path d="m73.216 117.378-.035-.011.03.013z"/><path d="m126.974 124.739a.706.706 0 0 0 -.415-.106l.041.021c.105.019.233.046.374.085z"/><path d="m127.72 124.964a.957.957 0 0 0 -.337-.107c.121.038.225.074.308.106z"/><path d="m126.438 124.635h.051-.008c-.012 0-.026-.002-.043 0z"/><path d="m73.211 117.38.154.065z"/><path d="m73.634 117.376-.02-.005c-.022.008-.051.021-.079.034z"/><path d="m78.138 163.423h.02c-.006-.001-.014.001-.02 0z"/><path d="m75.581 162.253-.082-.2-.116-.282v.012c.1.231.156.373.193.46z"/><path d="m78.4 163.03a.55.55 0 0 0 -.257.309c.042-.051.135-.154.217-.237.013-.025.027-.048.04-.072z"/><path d="m83.376 158.53a5.006 5.006 0 0 0 -4.863 4.3c-.039.066-.076.135-.113.2l.023-.008-.012.03c-.016.014-.033.031-.051.05-.019.037-.041.073-.06.109s-.037.062-.055.091c-.039.023-.07.043-.109.065 0-.01 0-.017.007-.028l-.025.029-.011.014-.122.068a.508.508 0 0 1 .093-.027l-.01.013-.1.022-.071.038c-.062.041-.1.066-.14.089h-.044a1.387 1.387 0 0 1 .228-.126c-.159.038-.368.095-.526.143a.922.922 0 0 1 -.162-.025c-.031-.008-.2-.07-.34-.112l-.549-.312-.026-.014c-.024-.028-.036-.046-.074-.087 0 0-.188-.169-.331-.314-.093-.129-.236-.312-.355-.49.044.108.04.1-.005-.007-.125-.186-.219-.363-.193-.46l-.019-.045a13.161 13.161 0 0 0 -.535-1.212 6.484 6.484 0 0 0 -8.9-2.595 31.725 31.725 0 0 0 -4.8 3.8c-.054.044-.19.146-.3.227-.172.111-.352.215-.53.321-.467-.514-.894-1.064-1.37-1.57a8.828 8.828 0 0 0 -6.572-2.992c-3.293.091-5.929 2.073-7.793 4.642-1.306 1.8-1.842 4.02-3.207 5.789-1.605 2.08-.385 5.69 1.794 6.841 2.652 1.4 5.128.427 6.841-1.793a13.366 13.366 0 0 0 1.483-2.524c.329-.7.726-1.393 1.075-2.093.051.061.1.121.155.181a13.554 13.554 0 0 0 2.472 2.273 8.787 8.787 0 0 0 7.132 1.224 15.13 15.13 0 0 0 5.791-3.375 11.37 11.37 0 0 0 1.624 1.71 12.54 12.54 0 0 0 7.232 2.987 11.012 11.012 0 0 0 11.423-10.047c.339-2.604-2.541-5.11-5-5z"/><path d="m77.985 163.45c-.014.005-.027.008-.041.014l.027-.006z"/><path d="m127.219 195.33-10.558-8.487q2.4-3.84 5.075-7.495c1.557-2.114.422-5.67-1.794-6.841-2.608-1.378-5.179-.462-6.84 1.794q-2.25 3.054-4.276 6.243l-.964-.774a5.416 5.416 0 0 0 -3.535-1.465 5.091 5.091 0 0 0 -3.536 1.465c-1.669 1.818-2.177 5.321 0 7.071l3 2.413a128.394 128.394 0 0 0 -5.779 12.632c-.96 2.44 1.051 5.595 3.492 6.151 2.877.655 5.123-.88 6.151-3.492q.33-.84.671-1.677c.087-.214.177-.428.266-.642.026-.06.061-.14.105-.243.513-1.171 1.036-2.338 1.583-3.494.457-.967.935-1.924 1.419-2.878l8.446 6.79a5.414 5.414 0 0 0 3.536 1.464 5.092 5.092 0 0 0 3.535-1.464c1.672-1.818 2.184-5.321.003-7.071z"/></g></svg>